<?xml version="1.0" encoding="UTF-8"?>
<svg width="24px" height="18px" viewBox="0 0 24 18" version="1.1" xmlns="http://www.w3.org/2000/svg" xmlns:xlink="http://www.w3.org/1999/xlink">
    <!-- Generator: Sketch 52.2 (67145) - http://www.bohemiancoding.com/sketch -->
    <title>icons/check</title>
    <desc>Created with Sketch.</desc>
    <defs>
        <path d="M0.105572809,8.5527864 C0.246140906,8.27165021 0.50996726,7.80262558 0.894335622,7.20747457 C1.5305005,6.22244509 2.28112631,5.23801779 3.1454628,4.31605887 C5.66130774,1.63249094 8.62019756,0 12,0 C15.3798024,0 18.3386923,1.63249094 20.8545372,4.31605887 C21.7188737,5.23801779 22.4694995,6.22244509 23.1056644,7.20747457 C23.4900327,7.80262558 23.7538591,8.27165021 23.8944272,8.5527864 C24.0351909,8.8343139 24.0351909,9.1656861 23.8944272,9.4472136 C23.7538591,9.72834979 23.4900327,10.1973744 23.1056644,10.7925254 C22.4694995,11.7775549 21.7188737,12.7619822 20.8545372,13.6839411 C18.3386923,16.3675091 15.3798024,18 12,18 C8.62019756,18 5.66130774,16.3675091 3.1454628,13.6839411 C2.28112631,12.7619822 1.5305005,11.7775549 0.894335622,10.7925254 C0.50996726,10.1973744 0.246140906,9.72834979 0.105572809,9.4472136 C-0.0351909363,9.1656861 -0.0351909363,8.8343139 0.105572809,8.5527864 Z M1.48388122,9.80854236 C2.12515461,10.8256515 2.88278322,11.8434489 3.74888773,12.7897816 C6.17180164,15.4371325 8.93718515,17 12,17 C15.0628148,17 17.8281984,15.4371325 20.2511123,12.7897816 C21.1172168,11.8434489 21.8748454,10.8256515 22.5161188,9.80854236 C22.6981308,9.51985729 22.8595597,9.24872036 23,9 C22.8595597,8.75127964 22.6981308,8.48014271 22.5161188,8.19145764 C21.8748454,7.17434847 21.1172168,6.1565511 20.2511123,5.21021843 C17.8281984,2.5628675 15.0628148,1 12,1 C8.93718515,1 6.17180164,2.5628675 3.74888773,5.21021843 C2.88278322,6.1565511 2.12515461,7.17434847 1.48388122,8.19145764 C1.30186924,8.48014271 1.14044025,8.75127964 1,9 C1.14044025,9.24872036 1.30186924,9.51985729 1.48388122,9.80854236 Z M12,13 C9.790861,13 8,11.209139 8,9 C8,6.790861 9.790861,5 12,5 C14.209139,5 16,6.790861 16,9 C16,11.209139 14.209139,13 12,13 Z M12,12 C13.6568542,12 15,10.6568542 15,9 C15,7.34314575 13.6568542,6 12,6 C10.3431458,6 9,7.34314575 9,9 C9,10.6568542 10.3431458,12 12,12 Z" id="path-1"></path>
    </defs>
    <g id="Symbols" stroke="none" stroke-width="1" fill="none" fill-rule="evenodd">
        <g id="elements/input_hint-ICON" transform="translate(-216.000000, -23.000000)">
            <g id="icons/icn_eye_on" transform="translate(216.000000, 20.000000)">
                <g id="eye" transform="translate(0.000000, 3.000000)">
                    <mask id="mask-2" fill="white">
                        <use xlink:href="#path-1"></use>
                    </mask>
                    <use id="Combined-Shape" fill="#000000" fill-rule="nonzero" xlink:href="#path-1"></use>
                    <g id="COLOR/icons/active" mask="url(#mask-2)" fill="#204672">
                        <g transform="translate(0.000000, -3.000000)" id="Rectangle">
                            <rect x="0" y="0" width="24" height="24"></rect>
                        </g>
                    </g>
                </g>
            </g>
        </g>
    </g>
</svg>