<?xml version="1.0" encoding="UTF-8"?>
<svg width="24px" height="24px" viewBox="0 0 24 24" version="1.1" xmlns="http://www.w3.org/2000/svg" xmlns:xlink="http://www.w3.org/1999/xlink">
    <!-- Generator: Sketch 52.2 (67145) - http://www.bohemiancoding.com/sketch -->
    <title>icons/check</title>
    <desc>Created with Sketch.</desc>
    <defs>
        <path d="M3.51674678,6.93096034 L4.25945813,7.6736717 C4.08762103,7.84716588 3.91742584,8.02606846 3.74888773,8.21021843 C2.88278322,9.1565511 2.12515461,10.1743485 1.48388122,11.1914576 C1.30186924,11.4801427 1.14044025,11.7512796 1,12 C1.14044025,12.2487204 1.30186924,12.5198573 1.48388122,12.8085424 C2.12515461,13.8256515 2.88278322,14.8434489 3.74888773,15.7897816 C6.17180164,18.4371325 8.93718515,20 12,20 C13.3105689,20 14.5666794,19.7138456 15.7648029,19.1790164 L16.538526,19.9527396 C15.1226744,20.6300016 13.6090364,21 12,21 C8.62019756,21 5.66130774,19.3675091 3.1454628,16.6839411 C2.28112631,15.7619822 1.5305005,14.7775549 0.894335622,13.7925254 C0.50996726,13.1973744 0.246140906,12.7283498 0.105572809,12.4472136 C-0.0351909363,12.1656861 -0.0351909363,11.8343139 0.105572809,11.5527864 C0.246140906,11.2716502 0.50996726,10.8026256 0.894335622,10.2074746 C1.5305005,9.22244509 2.28112631,8.23801779 3.1454628,7.31605887 C3.26817124,7.18516987 3.39193365,7.0567813 3.51674747,6.93096062 Z M8.03729483,11.4515084 L9.03312618,12.4473397 C9.22729368,13.7460767 10.2539233,14.7727063 11.5526603,14.9668738 L12.5484916,15.9627052 C12.3691753,15.987295 12.1860713,16 12,16 C9.790861,16 8,14.209139 8,12 C8,11.8139287 8.012705,11.6308247 8.03729483,11.4515084 Z M7.46147401,4.04726044 C8.87732555,3.36999844 10.3909636,3 12,3 C15.3798024,3 18.3386923,4.63249094 20.8545372,7.31605887 C21.7188737,8.23801779 22.4694995,9.22244509 23.1056644,10.2074746 C23.4900327,10.8026256 23.7538591,11.2716502 23.8944272,11.5527864 C24.0351909,11.8343139 24.0351909,12.1656861 23.8944272,12.4472136 C23.7538591,12.7283498 23.4900327,13.1973744 23.1056644,13.7925254 C22.4694995,14.7775549 21.7188737,15.7619822 20.8545372,16.6839411 C20.7318288,16.8148301 20.6080665,16.9432186 20.4832527,17.0690392 L19.7405419,16.3263283 C19.912379,16.1528341 20.0825742,15.9739315 20.2511123,15.7897816 C21.1172168,14.8434489 21.8748454,13.8256515 22.5161188,12.8085424 C22.6981308,12.5198573 22.8595597,12.2487204 23,12 C22.8595597,11.7512796 22.6981308,11.4801427 22.5161188,11.1914576 C21.8748454,10.1743485 21.1172168,9.1565511 20.2511123,8.21021843 C17.8281984,5.5628675 15.0628148,4 12,4 C10.6894311,4 9.43332064,4.28615437 8.23519714,4.82098358 L7.46147401,4.04726044 Z M11.4515084,8.03729483 C11.6308247,8.012705 11.8139287,8 12,8 C14.209139,8 16,9.790861 16,12 C16,12.1860713 15.987295,12.3691753 15.9627052,12.5484916 L14.9668738,11.5526603 C14.7727063,10.2539233 13.7460767,9.22729368 12.4473397,9.03312618 L11.4515084,8.03729483 Z M0.140588745,0.819411255 C-0.046862915,0.631959595 -0.046862915,0.328040405 0.140588745,0.140588745 C0.328040405,-0.046862915 0.631959595,-0.046862915 0.819411255,0.140588745 L23.8594113,23.1805887 C24.0468629,23.3680404 24.0468629,23.6719596 23.8594113,23.8594113 C23.6719596,24.0468629 23.3680404,24.0468629 23.1805887,23.8594113 L0.140588745,0.819411255 Z" id="path-1"></path>
    </defs>
    <g id="Symbols" stroke="none" stroke-width="1" fill="none" fill-rule="evenodd">
        <g id="elements/input_hint-ICON" transform="translate(-216.000000, -20.000000)">
            <g id="icons/icn_eye_off" transform="translate(216.000000, 20.000000)">
                <mask id="mask-2" fill="white">
                    <use xlink:href="#path-1"></use>
                </mask>
                <use id="Combined-Shape" fill="#000000" fill-rule="nonzero" xlink:href="#path-1"></use>
                <g id="COLOR/icons/active" mask="url(#mask-2)" fill="#204672" fill-rule="evenodd">
                    <rect id="Rectangle" x="0" y="0" width="24" height="24"></rect>
                </g>
            </g>
        </g>
    </g>
</svg>